<svg version="1.1" id="Layer_1" xmlns="http://www.w3.org/2000/svg" xmlns:xlink="http://www.w3.org/1999/xlink" x="0px" y="0px"
	 width="100%" viewBox="0 0 60 60" enable-background="new 0 0 60 60" xml:space="preserve">
<path fill="#99CDFF" opacity="1.000000" stroke="#99CDFF" 
	d="
M41.000957,61.000000 
	C27.334108,61.000000 14.167461,61.000000 1.000611,61.000000 
	C1.000407,41.000301 1.000407,21.000603 1.000204,1.000678 
	C20.999670,1.000452 40.999340,1.000452 60.999256,1.000226 
	C60.999504,20.999640 60.999504,40.999279 60.999752,60.999458 
	C54.500385,61.000000 48.000774,61.000000 41.000957,61.000000 
M19.656456,49.010193 
	C29.272444,49.010193 38.888432,49.010193 48.483692,49.010193 
	C48.571957,41.012985 44.157574,34.281368 39.253002,34.594254 
	C41.298862,38.066463 43.310570,41.480713 45.741566,45.606567 
	C35.474945,45.606567 26.457071,45.606567 15.884217,45.606567 
	C18.275141,42.003506 20.094913,39.380779 21.763786,36.665306 
	C22.201845,35.952530 22.172174,34.952293 22.357302,34.084068 
	C21.490097,34.096001 20.237234,33.738159 19.815891,34.177593 
	C15.989088,38.168743 13.350960,42.729656 13.238200,49.010235 
	C15.431157,49.010235 17.072226,49.010235 19.656456,49.010193 
M20.597023,25.777046 
	C23.216124,32.736450 29.005461,35.767658 35.007759,33.322289 
	C40.380074,31.133575 43.115311,24.435801 40.772625,19.205856 
	C38.754982,14.701559 33.783306,12.180382 28.785175,13.126918 
	C23.675970,14.094487 20.451643,18.662487 20.597023,25.777046 
z"/>
<path fill="#FBFDFF" opacity="1.000000" stroke="none" 
	d="
M19.184875,49.010216 
	C17.072226,49.010235 15.431157,49.010235 13.238200,49.010235 
	C13.350960,42.729656 15.989088,38.168743 19.815891,34.177593 
	C20.237234,33.738159 21.490097,34.096001 22.357302,34.084068 
	C22.172174,34.952293 22.201845,35.952530 21.763786,36.665306 
	C20.094913,39.380779 18.275141,42.003506 15.884217,45.606567 
	C26.457071,45.606567 35.474945,45.606567 45.741566,45.606567 
	C43.310570,41.480713 41.298862,38.066463 39.253002,34.594254 
	C44.157574,34.281368 48.571957,41.012985 48.483692,49.010193 
	C38.888432,49.010193 29.272444,49.010193 19.184875,49.010216 
z"/>
<path fill="#F5FAFF" opacity="1.000000" stroke="none" 
	d="
M20.486134,25.409279 
	C20.451643,18.662487 23.675970,14.094487 28.785175,13.126918 
	C33.783306,12.180382 38.754982,14.701559 40.772625,19.205856 
	C43.115311,24.435801 40.380074,31.133575 35.007759,33.322289 
	C29.005461,35.767658 23.216124,32.736450 20.486134,25.409279 
M36.139668,28.513420 
	C38.957859,25.264193 39.090004,21.864882 36.252789,18.672321 
	C33.763725,15.871519 30.680471,15.164248 27.311340,17.294518 
	C23.853935,19.480600 22.734884,24.014164 24.817732,27.295967 
	C27.214411,31.072258 30.880878,31.671326 36.139668,28.513420 
z"/>
<path fill="#9ACEFF" opacity="1.000000" stroke="none" 
	d="
M35.855797,28.783264 
	C30.880878,31.671326 27.214411,31.072258 24.817732,27.295967 
	C22.734884,24.014164 23.853935,19.480600 27.311340,17.294518 
	C30.680471,15.164248 33.763725,15.871519 36.252789,18.672321 
	C39.090004,21.864882 38.957859,25.264193 35.855797,28.783264 
z"/>
</svg>